<svg width="97" height="97" viewBox="0 0 97 97" fill="none" xmlns="http://www.w3.org/2000/svg">
<g filter="url(#filter0_d_439_252)">
<circle cx="47.5" cy="47.5" r="44.5" fill="url(#paint0_linear_439_252)"/>
<path d="M28 30L30.0987 30.4197C31.8227 30.7645 33.1195 32.1946 33.2944 33.9441L33.6 37M33.6 37L35.5772 53.4766C35.8184 55.487 37.5239 57 39.5487 57H57.5346C60.7466 57 63.5465 54.8139 64.3256 51.6977L66.5711 42.7157C67.2969 39.8124 65.1011 37 62.1084 37H33.6Z" stroke="white" stroke-width="3" stroke-linecap="round"/>
<path d="M50 51H42" stroke="white" stroke-width="3" stroke-linecap="round" stroke-linejoin="round"/>
<circle cx="41" cy="64" r="3" fill="white"/>
<circle cx="59" cy="64" r="3" fill="white"/>
</g>
<defs>
<filter id="filter0_d_439_252" x="0" y="0" width="97" height="97" filterUnits="userSpaceOnUse" color-interpolation-filters="sRGB">
<feFlood flood-opacity="0" result="BackgroundImageFix"/>
<feColorMatrix in="SourceAlpha" type="matrix" values="0 0 0 0 0 0 0 0 0 0 0 0 0 0 0 0 0 0 127 0" result="hardAlpha"/>
<feOffset dx="1" dy="1"/>
<feGaussianBlur stdDeviation="2"/>
<feComposite in2="hardAlpha" operator="out"/>
<feColorMatrix type="matrix" values="0 0 0 0 0 0 0 0 0 0 0 0 0 0 0 0 0 0 0.25 0"/>
<feBlend mode="normal" in2="BackgroundImageFix" result="effect1_dropShadow_439_252"/>
<feBlend mode="normal" in="SourceGraphic" in2="effect1_dropShadow_439_252" result="shape"/>
</filter>
<linearGradient id="paint0_linear_439_252" x1="9.5" y1="17" x2="82.5" y2="76" gradientUnits="userSpaceOnUse">
<stop stop-color="#5BAEFF"/>
<stop offset="1" stop-color="#0057AD"/>
<stop offset="1" stop-color="#0057AD"/>
</linearGradient>
</defs>
</svg>
