<svg width="48" height="49" viewBox="0 0 48 49" fill="none" xmlns="http://www.w3.org/2000/svg">
<path d="M4 20.9129C4 16.5427 7.54273 13 11.9129 13C13.1791 13 14.3234 12.2454 14.8221 11.0817L15.4415 9.63649C16.387 7.43038 18.5562 6 20.9564 6H24H27.0436C29.4438 6 31.613 7.43038 32.5585 9.63648L33.1779 11.0817C33.6766 12.2454 34.8209 13 36.0871 13C40.4573 13 44 16.5427 44 20.9129V31C44 36.5228 39.5228 41 34 41H14C8.47715 41 4 36.5228 4 31V20.9129Z" stroke="#686868" stroke-width="4"/>
<circle cx="6" cy="6" r="6" transform="matrix(-1 0 0 1 30 19)" stroke="#686868" stroke-width="4"/>
<mask id="path-3-outside-1_473_264" maskUnits="userSpaceOnUse" x="9" y="33" width="29" height="16" fill="black">
<rect fill="white" x="9" y="33" width="29" height="16"/>
<path d="M23.2812 47H20.5312L19.7344 44.5078H15.75L14.9609 47H12.2266L16.3047 35.7969H19.2969L23.2812 47ZM19.1562 42.5703L17.9531 38.8047C17.8646 38.5234 17.8021 38.1875 17.7656 37.7969H17.7031C17.6771 38.125 17.612 38.4505 17.5078 38.7734L16.2891 42.5703H19.1562ZM34.0781 47H31.1797L29.4375 44.1172C29.3073 43.8984 29.1823 43.7031 29.0625 43.5312C28.9427 43.3594 28.8203 43.2135 28.6953 43.0938C28.5755 42.9688 28.4479 42.875 28.3125 42.8125C28.1823 42.7448 28.0391 42.7109 27.8828 42.7109H27.2031V47H24.6797V35.7969H28.6797C31.3984 35.7969 32.7578 36.8125 32.7578 38.8438C32.7578 39.2344 32.6979 39.5964 32.5781 39.9297C32.4583 40.2578 32.2891 40.5547 32.0703 40.8203C31.8516 41.0859 31.5859 41.3151 31.2734 41.5078C30.9661 41.7005 30.6224 41.8516 30.2422 41.9609V41.9922C30.4089 42.0443 30.5703 42.1302 30.7266 42.25C30.8828 42.3646 31.0339 42.5 31.1797 42.6562C31.3255 42.8125 31.4635 42.9818 31.5938 43.1641C31.7292 43.3411 31.8516 43.5156 31.9609 43.6875L34.0781 47ZM27.2031 37.6875V40.8047H28.2969C28.8385 40.8047 29.2734 40.6484 29.6016 40.3359C29.9349 40.0182 30.1016 39.625 30.1016 39.1562C30.1016 38.1771 29.5156 37.6875 28.3438 37.6875H27.2031Z"/>
</mask>
<path d="M23.2812 47H20.5312L19.7344 44.5078H15.75L14.9609 47H12.2266L16.3047 35.7969H19.2969L23.2812 47ZM19.1562 42.5703L17.9531 38.8047C17.8646 38.5234 17.8021 38.1875 17.7656 37.7969H17.7031C17.6771 38.125 17.612 38.4505 17.5078 38.7734L16.2891 42.5703H19.1562ZM34.0781 47H31.1797L29.4375 44.1172C29.3073 43.8984 29.1823 43.7031 29.0625 43.5312C28.9427 43.3594 28.8203 43.2135 28.6953 43.0938C28.5755 42.9688 28.4479 42.875 28.3125 42.8125C28.1823 42.7448 28.0391 42.7109 27.8828 42.7109H27.2031V47H24.6797V35.7969H28.6797C31.3984 35.7969 32.7578 36.8125 32.7578 38.8438C32.7578 39.2344 32.6979 39.5964 32.5781 39.9297C32.4583 40.2578 32.2891 40.5547 32.0703 40.8203C31.8516 41.0859 31.5859 41.3151 31.2734 41.5078C30.9661 41.7005 30.6224 41.8516 30.2422 41.9609V41.9922C30.4089 42.0443 30.5703 42.1302 30.7266 42.25C30.8828 42.3646 31.0339 42.5 31.1797 42.6562C31.3255 42.8125 31.4635 42.9818 31.5938 43.1641C31.7292 43.3411 31.8516 43.5156 31.9609 43.6875L34.0781 47ZM27.2031 37.6875V40.8047H28.2969C28.8385 40.8047 29.2734 40.6484 29.6016 40.3359C29.9349 40.0182 30.1016 39.625 30.1016 39.1562C30.1016 38.1771 29.5156 37.6875 28.3438 37.6875H27.2031Z" fill="#686868"/>
<path d="M23.2812 47V49H26.1153L25.1656 46.3298L23.2812 47ZM20.5312 47L18.6263 47.6091L19.071 49H20.5312V47ZM19.7344 44.5078L21.6394 43.8987L21.1946 42.5078H19.7344V44.5078ZM15.75 44.5078V42.5078H14.2854L13.8433 43.9041L15.75 44.5078ZM14.9609 47V49H16.4256L16.8677 47.6037L14.9609 47ZM12.2266 47L10.3472 46.3159L9.37014 49H12.2266V47ZM16.3047 35.7969V33.7969H14.9043L14.4253 35.1128L16.3047 35.7969ZM19.2969 35.7969L21.1812 35.1267L20.7083 33.7969H19.2969V35.7969ZM19.1562 42.5703V44.5703H21.8949L21.0614 41.9616L19.1562 42.5703ZM17.9531 38.8047L16.0454 39.4053L16.048 39.4134L17.9531 38.8047ZM17.7656 37.7969L19.757 37.611L19.5877 35.7969H17.7656V37.7969ZM17.7031 37.7969V35.7969H15.8556L15.7094 37.6386L17.7031 37.7969ZM17.5078 38.7734L15.6044 38.1594L15.6035 38.1622L17.5078 38.7734ZM16.2891 42.5703L14.3848 41.9591L13.5466 44.5703H16.2891V42.5703ZM23.2812 47V45H20.5312V47V49H23.2812V47ZM20.5312 47L22.4362 46.3909L21.6394 43.8987L19.7344 44.5078L17.8294 45.1169L18.6263 47.6091L20.5312 47ZM19.7344 44.5078V42.5078H15.75V44.5078V46.5078H19.7344V44.5078ZM15.75 44.5078L13.8433 43.9041L13.0542 46.3963L14.9609 47L16.8677 47.6037L17.6567 45.1115L15.75 44.5078ZM14.9609 47V45H12.2266V47V49H14.9609V47ZM12.2266 47L14.1059 47.6841L18.184 36.481L16.3047 35.7969L14.4253 35.1128L10.3472 46.3159L12.2266 47ZM16.3047 35.7969V37.7969H19.2969V35.7969V33.7969H16.3047V35.7969ZM19.2969 35.7969L17.4125 36.467L21.3969 47.6702L23.2812 47L25.1656 46.3298L21.1812 35.1267L19.2969 35.7969ZM19.1562 42.5703L21.0614 41.9616L19.8582 38.196L17.9531 38.8047L16.048 39.4134L17.2511 43.179L19.1562 42.5703ZM17.9531 38.8047L19.8608 38.2041C19.826 38.0936 19.7843 37.904 19.757 37.611L17.7656 37.7969L15.7743 37.9827C15.8199 38.471 15.9031 38.9533 16.0454 39.4053L17.9531 38.8047ZM17.7656 37.7969V35.7969H17.7031V37.7969V39.7969H17.7656V37.7969ZM17.7031 37.7969L15.7094 37.6386C15.696 37.8071 15.6623 37.9798 15.6044 38.1594L17.5078 38.7734L19.4112 39.3874C19.5616 38.9212 19.6581 38.4429 19.6969 37.9551L17.7031 37.7969ZM17.5078 38.7734L15.6035 38.1622L14.3848 41.9591L16.2891 42.5703L18.1934 43.1816L19.4121 39.3847L17.5078 38.7734ZM16.2891 42.5703V44.5703H19.1562V42.5703V40.5703H16.2891V42.5703ZM34.0781 47V49H37.73L35.7633 45.9229L34.0781 47ZM31.1797 47L29.468 48.0344L30.0515 49H31.1797V47ZM29.4375 44.1172L27.7189 45.1402L27.7258 45.1516L29.4375 44.1172ZM28.6953 43.0938L27.2513 44.4776L27.2808 44.5083L27.3115 44.5377L28.6953 43.0938ZM28.3125 42.8125L27.3898 44.5869L27.4316 44.6087L27.4744 44.6284L28.3125 42.8125ZM27.2031 42.7109V40.7109H25.2031V42.7109H27.2031ZM27.2031 47V49H29.2031V47H27.2031ZM24.6797 47H22.6797V49H24.6797V47ZM24.6797 35.7969V33.7969H22.6797V35.7969H24.6797ZM32.5781 39.9297L34.4569 40.6156L34.4603 40.6061L32.5781 39.9297ZM31.2734 41.5078L30.2237 39.8055L30.2172 39.8094L30.2109 39.8134L31.2734 41.5078ZM30.2422 41.9609L29.6893 40.0389L28.2422 40.4552V41.9609H30.2422ZM30.2422 41.9922H28.2422V43.4626L29.6456 43.9011L30.2422 41.9922ZM30.7266 42.25L29.5097 43.8372L29.5266 43.8502L29.5438 43.8628L30.7266 42.25ZM31.5938 43.1641L29.9663 44.3265L29.9852 44.3531L30.005 44.379L31.5938 43.1641ZM31.9609 43.6875L30.2736 44.7613L30.2757 44.7646L31.9609 43.6875ZM27.2031 37.6875V35.6875H25.2031V37.6875H27.2031ZM27.2031 40.8047H25.2031V42.8047H27.2031V40.8047ZM29.6016 40.3359L30.9809 41.7842L30.9814 41.7837L29.6016 40.3359ZM34.0781 47V45H31.1797V47V49H34.0781V47ZM31.1797 47L32.8914 45.9656L31.1492 43.0827L29.4375 44.1172L27.7258 45.1516L29.468 48.0344L31.1797 47ZM29.4375 44.1172L31.1561 43.0942C31.0064 42.8427 30.8555 42.6061 30.7033 42.3877L29.0625 43.5312L27.4217 44.6748C27.5091 44.8002 27.6082 44.9541 27.7189 45.1402L29.4375 44.1172ZM29.0625 43.5312L30.7033 42.3877C30.5231 42.1292 30.3169 41.8776 30.0791 41.6498L28.6953 43.0938L27.3115 44.5377C27.3237 44.5494 27.3623 44.5896 27.4217 44.6748L29.0625 43.5312ZM28.6953 43.0938L30.1393 41.7099C29.8738 41.4329 29.5467 41.1794 29.1506 40.9966L28.3125 42.8125L27.4744 44.6284C27.3492 44.5706 27.2772 44.5046 27.2513 44.4776L28.6953 43.0938ZM28.3125 42.8125L29.2352 41.0381C28.8017 40.8126 28.3389 40.7109 27.8828 40.7109V42.7109V44.7109C27.7392 44.7109 27.5629 44.677 27.3898 44.5869L28.3125 42.8125ZM27.8828 42.7109V40.7109H27.2031V42.7109V44.7109H27.8828V42.7109ZM27.2031 42.7109H25.2031V47H27.2031H29.2031V42.7109H27.2031ZM27.2031 47V45H24.6797V47V49H27.2031V47ZM24.6797 47H26.6797V35.7969H24.6797H22.6797V47H24.6797ZM24.6797 35.7969V37.7969H28.6797V35.7969V33.7969H24.6797V35.7969ZM28.6797 35.7969V37.7969C29.8479 37.7969 30.3599 38.0253 30.5412 38.1608C30.6131 38.2145 30.7578 38.319 30.7578 38.8438H32.7578H34.7578C34.7578 37.3373 34.2229 35.9183 32.9353 34.9564C31.7573 34.0763 30.2302 33.7969 28.6797 33.7969V35.7969ZM32.7578 38.8438H30.7578C30.7578 39.0274 30.7302 39.1581 30.696 39.2533L32.5781 39.9297L34.4603 40.6061C34.6657 40.0346 34.7578 39.4413 34.7578 38.8438H32.7578ZM32.5781 39.9297L30.6994 39.2438C30.6561 39.3625 30.599 39.4608 30.5265 39.5489L32.0703 40.8203L33.6142 42.0917C33.9791 41.6486 34.2606 41.1531 34.4568 40.6156L32.5781 39.9297ZM32.0703 40.8203L30.5265 39.5489C30.4567 39.6336 30.3615 39.7205 30.2237 39.8055L31.2734 41.5078L32.3232 43.2102C32.8104 42.9097 33.2465 42.5382 33.6142 42.0917L32.0703 40.8203ZM31.2734 41.5078L30.2109 39.8134C30.0756 39.8982 29.906 39.9766 29.6893 40.0389L30.2422 41.9609L30.7951 43.883C31.3388 43.7266 31.8567 43.5028 32.336 43.2022L31.2734 41.5078ZM30.2422 41.9609H28.2422V41.9922H30.2422H32.2422V41.9609H30.2422ZM30.2422 41.9922L29.6456 43.9011C29.5616 43.8749 29.5162 43.8422 29.5097 43.8372L30.7266 42.25L31.9434 40.6628C31.6244 40.4182 31.2561 40.2137 30.8387 40.0832L30.2422 41.9922ZM30.7266 42.25L29.5438 43.8628C29.5897 43.8965 29.6483 43.9467 29.7176 44.0209L31.1797 42.6562L32.6418 41.2916C32.4194 41.0533 32.1759 40.8327 31.9093 40.6372L30.7266 42.25ZM31.1797 42.6562L29.7176 44.0209C29.8012 44.1105 29.8843 44.2118 29.9663 44.3265L31.5938 43.1641L33.2212 42.0016C33.0428 41.7518 32.8499 41.5145 32.6418 41.2916L31.1797 42.6562ZM31.5938 43.1641L30.005 44.379C30.1088 44.5146 30.1978 44.6421 30.2736 44.7613L31.9609 43.6875L33.6483 42.6137C33.5053 42.3892 33.3495 42.1677 33.1825 41.9492L31.5938 43.1641ZM31.9609 43.6875L30.2757 44.7646L32.3929 48.0771L34.0781 47L35.7633 45.9229L33.6461 42.6104L31.9609 43.6875ZM27.2031 37.6875H25.2031V40.8047H27.2031H29.2031V37.6875H27.2031ZM27.2031 40.8047V42.8047H28.2969V40.8047V38.8047H27.2031V40.8047ZM28.2969 40.8047V42.8047C29.2454 42.8047 30.2102 42.5182 30.9809 41.7842L29.6016 40.3359L28.2223 38.8877C28.2405 38.8703 28.263 38.8526 28.2886 38.8369C28.314 38.8213 28.3366 38.8112 28.3531 38.8053C28.3863 38.7933 28.376 38.8047 28.2969 38.8047V40.8047ZM29.6016 40.3359L30.9814 41.7837C31.7188 41.0809 32.1016 40.161 32.1016 39.1562H30.1016H28.1016C28.1016 39.1488 28.104 39.0957 28.1351 39.0223C28.1666 38.9481 28.2062 38.903 28.2217 38.8882L29.6016 40.3359ZM30.1016 39.1562H32.1016C32.1016 38.2545 31.8146 37.247 30.9445 36.5199C30.1432 35.8504 29.1592 35.6875 28.3438 35.6875V37.6875V39.6875C28.4214 39.6875 28.4788 39.6916 28.5187 39.6964C28.5586 39.7011 28.5763 39.706 28.5762 39.706C28.5748 39.7056 28.4894 39.6811 28.3797 39.5895C28.2624 39.4914 28.1792 39.368 28.1341 39.2547C28.0938 39.1537 28.1016 39.1068 28.1016 39.1562H30.1016ZM28.3438 37.6875V35.6875H27.2031V37.6875V39.6875H28.3438V37.6875Z" fill="#E4F2FB" mask="url(#path-3-outside-1_473_264)"/>
</svg>
