<svg width="48" height="48" viewBox="0 0 48 48" fill="none" xmlns="http://www.w3.org/2000/svg">
<path d="M4 20.9129C4 16.5427 7.54273 13 11.9129 13C13.1791 13 14.3234 12.2454 14.8221 11.0817L15.4415 9.63649C16.387 7.43038 18.5562 6 20.9564 6H24H27.0436C29.4438 6 31.613 7.43038 32.5585 9.63648L33.1779 11.0817C33.6766 12.2454 34.8209 13 36.0871 13C40.4573 13 44 16.5427 44 20.9129V31C44 36.5228 39.5228 41 34 41H14C8.47715 41 4 36.5228 4 31V20.9129Z" stroke="#7D7D7D" stroke-width="2"/>
<circle cx="6" cy="6" r="6" transform="matrix(-1 0 0 1 30 19)" stroke="#7D7D7D" stroke-width="2"/>
</svg>
