<svg width="64" height="64" viewBox="0 0 64 64" fill="none" xmlns="http://www.w3.org/2000/svg">
<path fill-rule="evenodd" clip-rule="evenodd" d="M29.3333 44.0826C29.2878 46.2804 27.4772 48.0297 25.279 47.9996C23.0808 47.9694 21.3188 46.1713 21.3336 43.973C21.3484 41.7748 23.1345 40.0004 25.3329 40C26.4048 40.0109 27.4286 40.4471 28.1787 41.2128C28.929 41.9784 29.3443 43.0107 29.3333 44.0826Z" stroke="#484848" stroke-width="2.5" stroke-linecap="round" stroke-linejoin="round"/>
<path fill-rule="evenodd" clip-rule="evenodd" d="M53.3333 44.0826C53.2878 46.2804 51.4772 48.0297 49.2789 47.9996C47.0807 47.9694 45.3188 46.1713 45.3336 43.973C45.3484 41.7748 47.1344 40.0004 49.3329 40C50.4048 40.0109 51.4286 40.4471 52.1787 41.2128C52.929 41.9784 53.3443 43.0107 53.3333 44.0826Z" stroke="#484848" stroke-width="2.5" stroke-linecap="round" stroke-linejoin="round"/>
<path d="M43.8231 45.7256C44.8427 45.7256 45.6693 44.899 45.6693 43.8794C45.6693 42.8599 44.8427 42.0333 43.8231 42.0333V45.7256ZM30.3014 42.0333C29.2818 42.0333 28.4552 42.8599 28.4552 43.8794C28.4552 44.899 29.2818 45.7256 30.3014 45.7256V42.0333ZM41.9866 43.8794C41.9866 44.899 42.8129 45.7256 43.8327 45.7256C44.8523 45.7256 45.6789 44.899 45.6789 43.8794H41.9866ZM45.6789 30.9145C45.6789 29.8949 44.8523 29.0684 43.8327 29.0684C42.8129 29.0684 41.9866 29.8949 41.9866 30.9145H45.6789ZM43.8327 42.0333C42.8129 42.0333 41.9866 42.8599 41.9866 43.8794C41.9866 44.899 42.8129 45.7256 43.8327 45.7256V42.0333ZM44.435 45.7256C45.4546 45.7256 46.2812 44.899 46.2812 43.8794C46.2812 42.8599 45.4546 42.0333 44.435 42.0333V45.7256ZM54.6189 42.0338C53.5996 42.0559 52.7912 42.9 52.8134 43.9196C52.8353 44.9389 53.6796 45.7472 54.6989 45.7251L54.6189 42.0338ZM60.0614 38.117L61.9073 38.0845C61.9056 37.9892 61.8965 37.8944 61.8802 37.8007L60.0614 38.117ZM60.6275 30.5982C60.4528 29.5936 59.4967 28.9209 58.4922 29.0957C57.4876 29.2704 56.8151 30.2263 56.9896 31.2308L60.6275 30.5982ZM43.8229 17.5434C42.8033 17.5434 41.9767 18.37 41.9767 19.3896C41.9767 20.4092 42.8033 21.2357 43.8229 21.2357V17.5434ZM52.3934 19.3896V21.2358L52.4053 21.2357L52.3934 19.3896ZM57.8054 25.152L55.961 25.0733C55.9553 25.2057 55.9639 25.3382 55.9866 25.4687L57.8054 25.152ZM56.9896 31.2308C57.1644 32.2354 58.1207 32.9081 59.1253 32.7333C60.1298 32.5583 60.8026 31.6025 60.6275 30.5982L56.9896 31.2308ZM45.669 19.3896C45.669 18.37 44.8427 17.5434 43.8229 17.5434C42.8033 17.5434 41.9767 18.37 41.9767 19.3896H45.669ZM41.9767 30.9145C41.9767 31.9341 42.8033 32.7607 43.8229 32.7607C44.8427 32.7607 45.669 31.9341 45.669 30.9145H41.9767ZM41.9767 19.3896C41.9767 20.4092 42.8033 21.2357 43.8229 21.2357C44.8427 21.2357 45.669 20.4092 45.669 19.3896H41.9767ZM43.8229 17.4204L41.9767 17.4085V17.4204H43.8229ZM41.2693 14.7693L41.2799 12.9231H41.2693V14.7693ZM18.2654 14.7693V12.9231L18.2566 12.9231L18.2654 14.7693ZM15.7094 17.4154H17.5556L17.5555 17.407L15.7094 17.4154ZM15.7094 41.2308L17.5555 41.2392V41.2308H15.7094ZM18.2654 43.877L18.2566 45.7231H18.2654V43.877ZM20.0678 45.7231C21.0874 45.7231 21.9139 44.8965 21.9139 43.877C21.9139 42.8574 21.0874 42.0308 20.0678 42.0308V45.7231ZM43.8278 29.0659C42.8082 29.0659 41.9816 29.8925 41.9816 30.912C41.9816 31.9316 42.8082 32.7582 43.8278 32.7582V29.0659ZM58.8134 32.7582C59.833 32.7582 60.6595 31.9316 60.6595 30.912C60.6595 29.8925 59.833 29.0659 58.8134 29.0659V32.7582ZM2.46139 17.8462C1.44178 17.8462 0.615234 18.6728 0.615234 19.6924C0.615234 20.7119 1.44178 21.5385 2.46139 21.5385V17.8462ZM9.97339 21.5385C10.993 21.5385 11.8195 20.7119 11.8195 19.6924C11.8195 18.6728 10.993 17.8462 9.97339 17.8462V21.5385ZM4.86139 25.2308C3.84179 25.2308 3.01523 26.0574 3.01523 27.077C3.01523 28.0965 3.84179 28.9231 4.86139 28.9231V25.2308ZM9.66139 28.9231C10.681 28.9231 11.5075 28.0965 11.5075 27.077C11.5075 26.0574 10.681 25.2308 9.66139 25.2308V28.9231ZM6.32539 32.6154C5.30579 32.6154 4.47923 33.442 4.47923 34.4616C4.47923 35.4812 5.30579 36.3077 6.32539 36.3077V32.6154ZM9.66139 36.3077C10.681 36.3077 11.5075 35.4812 11.5075 34.4616C11.5075 33.442 10.681 32.6154 9.66139 32.6154V36.3077ZM43.8231 42.0333H30.3014V45.7256H43.8231V42.0333ZM45.6789 43.8794V30.9145H41.9866V43.8794H45.6789ZM43.8327 45.7256H44.435V42.0333H43.8327V45.7256ZM54.6989 45.7251C58.8001 45.6362 61.9792 42.1763 61.9073 38.0845L58.2155 38.1495C58.2534 40.2964 56.6002 41.9907 54.6189 42.0338L54.6989 45.7251ZM61.8802 37.8007L60.6275 30.5982L56.9896 31.2308L58.2426 38.4333L61.8802 37.8007ZM43.8229 21.2357L52.3934 21.2358V17.5434H43.8229V21.2357ZM52.4053 21.2357C53.3581 21.2295 54.2822 21.6239 54.9586 22.3442L57.6501 19.8165C56.2807 18.3584 54.3774 17.5306 52.3814 17.5435L52.4053 21.2357ZM54.9586 22.3442C55.6368 23.0663 56.0045 24.0522 55.961 25.0733L59.6498 25.2307C59.7352 23.2303 59.0177 21.2727 57.6501 19.8165L54.9586 22.3442ZM55.9866 25.4687L56.9896 31.2308L60.6275 30.5982L59.6242 24.8354L55.9866 25.4687ZM41.9767 19.3896V30.9145H45.669V19.3896H41.9767ZM45.669 19.3896V17.4204H41.9767V19.3896H45.669ZM45.669 17.4322C45.6766 16.2581 45.2294 15.1203 44.4114 14.2713L41.7522 16.8328C41.8923 16.9783 41.9779 17.1846 41.9767 17.4085L45.669 17.4322ZM44.4114 14.2713C43.5922 13.4206 42.4668 12.9299 41.2799 12.9231L41.2589 16.6154C41.4352 16.6164 41.6136 16.6889 41.7522 16.8328L44.4114 14.2713ZM41.2693 12.9231L18.2654 12.9231V16.6154H41.2693V12.9231ZM18.2566 12.9231C17.0706 12.9288 15.9452 13.4178 15.1252 14.2668L17.7809 16.832C17.9196 16.6885 18.0981 16.6162 18.2742 16.6154L18.2566 12.9231ZM15.1252 14.2668C14.3067 15.1141 13.8579 16.2506 13.8633 17.4239L17.5555 17.407C17.5545 17.1832 17.6407 16.9772 17.7809 16.832L15.1252 14.2668ZM13.8632 17.4154V41.2308H17.5555L17.5556 17.4154H13.8632ZM13.8633 41.2224C13.8579 42.3956 14.3067 43.5321 15.1252 44.3794L17.7809 41.8142C17.6407 41.669 17.5545 41.4629 17.5555 41.2392L13.8633 41.2224ZM15.1252 44.3794C15.9452 45.2284 17.0706 45.7175 18.2566 45.7231L18.2742 42.0308C18.0981 42.0301 17.9196 41.9577 17.7809 41.8142L15.1252 44.3794ZM18.2654 45.7231H20.0678V42.0308H18.2654V45.7231ZM43.8278 32.7582H58.8134V29.0659H43.8278V32.7582ZM2.46139 21.5385H9.97339V17.8462H2.46139V21.5385ZM4.86139 28.9231H9.66139V25.2308H4.86139V28.9231ZM6.32539 36.3077H9.66139V32.6154H6.32539V36.3077Z" fill="#484848"/>
</svg>
