<svg width="48" height="48" viewBox="0 0 48 48" fill="none" xmlns="http://www.w3.org/2000/svg">
<path d="M21.9437 5.41693C22.8764 3.86696 25.1236 3.86696 26.0563 5.41693L30.7172 13.1617C31.0523 13.7186 31.5989 14.1157 32.2321 14.2623L41.0381 16.3018C42.8005 16.71 43.4949 18.8471 42.309 20.2132L36.3835 27.0393C35.9575 27.53 35.7487 28.1726 35.8049 28.82L36.5865 37.8253C36.7429 39.6276 34.9249 40.9484 33.2592 40.2427L24.9362 36.7166C24.3378 36.4631 23.6622 36.4631 23.0638 36.7166L14.7408 40.2427C13.0751 40.9484 11.2571 39.6276 11.4135 37.8253L12.1951 28.82C12.2513 28.1726 12.0425 27.53 11.6165 27.0393L5.69101 20.2132C4.50515 18.8471 5.19954 16.71 6.9619 16.3018L15.7679 14.2623C16.4011 14.1157 16.9477 13.7186 17.2828 13.1617L21.9437 5.41693Z" fill="white" stroke="url(#paint0_linear_793_1026)" stroke-width="3"/>
<path d="M22.5 4.5C22.9568 3.77568 24.0766 4.09927 24.0766 4.9556L24.0767 17.2434L24.0766 27.3623V32.7203V34.5733C24.0766 35.5283 23.5104 36.3924 22.6349 36.7737L14.7861 40.192C13.1202 40.9176 11.2835 39.6004 11.4363 37.7898L12.233 28.3529C12.2865 27.7186 12.0859 27.089 11.6752 26.6027L5.59281 19.3995C4.43916 18.0332 5.13111 15.9305 6.87064 15.5163L15.8826 13.3707C16.4773 13.229 16.9956 12.8658 17.3317 12.3551L22.5 4.5Z" fill="url(#paint1_linear_793_1026)"/>
<defs>
<linearGradient id="paint0_linear_793_1026" x1="2" y1="7.78926" x2="40.7605" y2="35.4061" gradientUnits="userSpaceOnUse">
<stop stop-color="#FFE897"/>
<stop offset="1" stop-color="#FFC700"/>
</linearGradient>
<linearGradient id="paint1_linear_793_1026" x1="3.07666" y1="7.23643" x2="27.5133" y2="16.4236" gradientUnits="userSpaceOnUse">
<stop stop-color="#FFE897"/>
<stop offset="1" stop-color="#FFC700"/>
</linearGradient>
</defs>
</svg>
