<svg width="56" height="56" viewBox="0 0 56 56" fill="none" xmlns="http://www.w3.org/2000/svg">
<path d="M43.8665 21.3901H12.1332C9.94244 21.3901 8.1665 23.1661 8.1665 25.3568V41.2235C8.1665 43.4142 9.94244 45.1901 12.1332 45.1901H43.8665C46.0572 45.1901 47.8332 43.4142 47.8332 41.2235V25.3568C47.8332 23.1661 46.0572 21.3901 43.8665 21.3901Z" stroke="#484848" stroke-width="3.5" stroke-linecap="round" stroke-linejoin="round"/>
<path d="M17.5674 45.19V31.7033C17.5674 31.5981 17.6092 31.4972 17.6836 31.4228C17.758 31.3484 17.8588 31.3066 17.9641 31.3066H37.5197C37.6249 31.3066 37.7258 31.3484 37.8002 31.4228C37.8746 31.4972 37.9164 31.5981 37.9164 31.7033V45.19" stroke="#484848" stroke-width="3.5" stroke-linecap="round" stroke-linejoin="round"/>
<path d="M28 31.3066V45.19" stroke="#484848" stroke-width="3.5" stroke-linecap="round" stroke-linejoin="round"/>
<path d="M12.5098 21.3901V15.4401C17.3135 12.9836 22.6275 11.6912 28.0227 11.6671C33.418 11.643 38.7433 12.8879 43.5688 15.3012L43.8663 15.4401V21.3901" stroke="#484848" stroke-width="3.5" stroke-linecap="round" stroke-linejoin="round"/>
</svg>
